<svg width="160cm" height="160cm" viewBox="0 0 160 160" xmlns="http://www.w3.org/2000/svg">
    <path d="M160 80a80 80 0 0 1-80 80A80 80 0 0 1 0 80 80 80 0 0 1 80 0a80 80 0 0 1 80 80Z" fill="#4b2c16"/>
    <path d="M32.25 35.09c39.832-3.98 67.072 37.453 67.503 38.765 29.984-11.405-1.366-37.545-35.021-52.18 82.386 4.618 86.33 80.428 48.685 105.399C51.372 168.23-4.685 85.46 39.536 55.356c-15.801 89.102 80.47 29.817-7.286-20.265ZM83.842 77.55c2.596 33.173-24.983 37.687-24.983 37.687 21.172 15.978 64.863-6.356 61.886-35.728-21.336 22.792-37.196-1.535-36.903-1.96Z" fill="#e1771d"/>
</svg>