<svg width="160cm" height="160cm" viewBox="0 0 160 160" xmlns="http://www.w3.org/2000/svg">
  <path d="M80 0 7.976 41.342v81.454L80 160l72.024-37.204V41.342Z" fill="#2b291d"/>
  <path d="M138.364 48.674v66.006L80 144.828v-63.11Z" fill="#7a7b7f"/>
  <path d="M21.636 48.674v66.006L80 144.828v-63.11Z" fill="#8c8e93"/>
  <path d="m80 15.172 58.364 33.502L80 81.718 21.636 48.674z" fill="#a3a4a9"/>
  <path d="m132.54 83.213-7.637-14.14-10.499 23.039zM96.424 103.86l1.404 15.866 18.903-17.418z" fill="#424230"/>
  <path d="m56.718 121.41 10.172-13.46-24.973 1.156zM26.77 90.61l15.581 5.494-8.455-23.8z" fill="#615c50"/>
  <path d="M80 27.264 65.413 40.22l29.817-5.317Zm20.984 34.991 7.258-20.528L83.41 57.443Zm-37.727-2.52 13.919-7.9-31.724-6.225Z" fill="#7d7962"/>
</svg>