<svg width="160cm" height="160cm" viewBox="0 0 160 160" xmlns="http://www.w3.org/2000/svg">
    <path d="M80 0 7.46 43.121v79.333L80 160l72.54-37.546V43.12Z" fill="#2b291d"/>
    <path d="M138.364 50.328v63.83L80 144.365V83.372Z" fill="#7a7b7f"/>
    <path d="M21.636 50.328v63.83L80 144.365V83.372Z" fill="#8c8e93"/>
    <path d="m80 15.634 58.364 34.694L80 83.372 21.636 50.328Z" fill="#a3a4a9"/>
    <path d="m26.77 92.265 15.581 5.493-8.455-23.8Z" fill="#615c50"/>
    <path d="m110.827 62.416-1.246-16.024-18.804 18.524ZM53.675 62.487l15.297-3.39-20.364-16.694Z" fill="#7d7962"/>
    <path d="m132.54 84.867-7.637-14.139-10.499 23.038ZM96.424 105.515l1.404 15.866 18.903-17.418Z" fill="#424230"/>
    <path d="m56.718 123.064 10.172-13.46-24.973 1.156z" fill="#615c50"/>
    <path d="M81.401 26.336 71.092 38.592l24.636 2.178Z" fill="#7d7962"/>
</svg>
