<svg width="160cm" height="160cm" viewBox="0 0 160 160" xmlns="http://www.w3.org/2000/svg">
    <path d="M160 80a80 80 0 0 1-80 80A80 80 0 0 1 0 80 80 80 0 0 1 80 0a80 80 0 0 1 80 80Z" fill="#253656" />
    <path d="M28.682 49.93c-4.499 4.899-9.506 26.323-5.96 42.449l13.432 17.69h88.023l14.301-24.649c0-21.93-3.913-31.617-5.925-33.36l-8.376 15.755-90.959-6.34Z" fill="#3d74b7"/>
    <path d="M21.522 81.83c0 71.338 115.313 71.338 116.956 3.59 0 0-13.303 16.586-24.317 20.391-6.203-51.7-8.719-4.811-28.196 0-.197-50.996-21.311 5.551-32.923-3.762-12.301-42.067-16.278 2.42-31.52-20.219Z" fill="#5698dd" />
    <path d="M59.278 64.835c1.179 12.508 31.339 10.544 42.384 2.737 3.387 9.275 45.549 4.183 31.419-14.936-7.386-9.993-13.373 10.229-21.718 8.887-4.14-54.333-21.801 20.948-39.2-7.886-20.615-34.168-10.58 13.792-27.001 6.232-8.615-3.966-6.717-22.92-16.991-9.314-11.536 15.276 13.927 33.612 31.107 14.28Z" fill="#6da5e7"/>
</svg>
