<?xml version="1.0" encoding="UTF-8" standalone="no"?>
<svg
   width="160cm"
   height="160cm"
   viewBox="0 0 160 160"
   version="1.1"
   id="svg4"
   sodipodi:docname="water.svg"
   inkscape:version="1.3.2 (091e20ef0f, 2023-11-25, custom)"
   xmlns:inkscape="http://www.inkscape.org/namespaces/inkscape"
   xmlns:sodipodi="http://sodipodi.sourceforge.net/DTD/sodipodi-0.dtd"
   xmlns="http://www.w3.org/2000/svg"
   xmlns:svg="http://www.w3.org/2000/svg">
  <defs
     id="defs4" />
  <sodipodi:namedview
     id="namedview4"
     pagecolor="#505050"
     bordercolor="#eeeeee"
     borderopacity="1"
     inkscape:showpageshadow="0"
     inkscape:pageopacity="0"
     inkscape:pagecheckerboard="0"
     inkscape:deskcolor="#d1d1d1"
     inkscape:document-units="cm"
     inkscape:zoom="0.068404295"
     inkscape:cx="2726.437"
     inkscape:cy="2346.3439"
     inkscape:window-width="1870"
     inkscape:window-height="1052"
     inkscape:window-x="1920"
     inkscape:window-y="0"
     inkscape:window-maximized="1"
     inkscape:current-layer="svg4" />
  <path
     d="M160 80a80 80 0 0 1-80 80A80 80 0 0 1 0 80 80 80 0 0 1 80 0a80 80 0 0 1 80 80Z"
     fill="#253656"
     id="path1"
     style="stroke:none;fill:#273959;fill-opacity:1" />
  <path
     d="M28.682 49.93c-4.499 4.899-9.506 26.323-5.96 42.449l13.432 17.69h88.023l14.301-24.649c0-21.93-3.913-31.617-5.925-33.36l-8.376 15.755-90.959-6.34Z"
     fill="#3d74b7"
     id="path2"
     style="stroke:none;fill:#4e76a7;fill-opacity:1" />
  <path
     d="m 21.522,81.83 c 0,71.338 115.313,71.338 116.956,3.59 -1.51633,-1.269445 -18.75592,12.020909 -24.317,20.391 -8.47955,-49.436403 -13.65645,0.0984 -28.196,0 C 71.642284,58.797395 64.044626,111.5338 53.042,102.049 39.705408,65.614257 36.063147,108.28072 21.522,81.83 Z"
     fill="#5698dd"
     id="path3"
     style="fill:#56a2dd;fill-opacity:1;stroke:none"
     sodipodi:nodetypes="cccccc" />
  <path
     d="m 59.278,63.291427 c 1.179,18.774228 31.339,15.826308 42.384,4.108176 3.387,13.921567 45.021,13.357588 30.891,-15.339603 -7.386,-14.999269 -12.845,8.274501 -21.19,6.260189 -4.14,-81.552613 -21.801,31.442479 -39.2,-11.83671 C 51.548,-4.8019231 61.583,67.184963 45.162,55.837572 36.547,49.884695 38.956,29.507699 28.682,49.93 17.146,72.858934 42.098,92.308327 59.278,63.291427 Z"
     fill="#6da5e7"
     id="path4"
     style="fill:#6db0e7;fill-opacity:1;stroke:none;stroke-width:1.22514"
     sodipodi:nodetypes="cccccccc" />
</svg>
