<?xml version="1.0" encoding="UTF-8" standalone="no"?>
<svg
   width="160cm"
   height="160cm"
   viewBox="0 0 160 160"
   version="1.1"
   id="svg4"
   sodipodi:docname="water.svg"
   inkscape:version="1.3.2 (091e20ef0f, 2023-11-25, custom)"
   xmlns:inkscape="http://www.inkscape.org/namespaces/inkscape"
   xmlns:sodipodi="http://sodipodi.sourceforge.net/DTD/sodipodi-0.dtd"
   xmlns="http://www.w3.org/2000/svg"
   xmlns:svg="http://www.w3.org/2000/svg">
  <defs
     id="defs4" />
  <sodipodi:namedview
     id="namedview4"
     pagecolor="#505050"
     bordercolor="#eeeeee"
     borderopacity="1"
     inkscape:showpageshadow="0"
     inkscape:pageopacity="0"
     inkscape:pagecheckerboard="0"
     inkscape:deskcolor="#d1d1d1"
     inkscape:document-units="cm"
     inkscape:zoom="0.048369141"
     inkscape:cx="1809.0046"
     inkscape:cy="4538.0174"
     inkscape:window-width="1870"
     inkscape:window-height="1052"
     inkscape:window-x="1920"
     inkscape:window-y="0"
     inkscape:window-maximized="1"
     inkscape:current-layer="svg4" />
  <path
     d="M160 80a80 80 0 0 1-80 80A80 80 0 0 1 0 80 80 80 0 0 1 80 0a80 80 0 0 1 80 80Z"
     fill="#253656"
     id="path1" />
  <path
     d="M28.682 49.93c-4.499 4.899-9.506 26.323-5.96 42.449l13.432 17.69h88.023l14.301-24.649c0-21.93-3.913-31.617-5.925-33.36l-8.376 15.755-90.959-6.34Z"
     fill="#3d74b7"
     id="path2" />
  <path
     d="M21.522 81.83c0 71.338 115.313 71.338 116.956 3.59 0 0-13.303 16.586-24.317 20.391-6.203-51.7-8.719-4.811-28.196 0-.197-50.996-21.311 5.551-32.923-3.762-12.301-42.067-16.278 2.42-31.52-20.219Z"
     fill="#5698dd"
     id="path3" />
  <path
     d="m 59.278,63.291427 c 1.179,18.774228 31.339,15.826308 42.384,4.108176 3.387,13.921567 45.549,6.278589 31.419,-22.418602 -7.386,-14.999269 -13.373,15.3535 -21.718,13.339188 -4.14,-81.552613 -21.801,31.442479 -39.2,-11.83671 C 51.548,-4.8019231 61.583,67.184963 45.162,55.837572 36.547,49.884695 38.445,21.435166 28.171,41.857467 16.635,64.786401 42.098,92.308327 59.278,63.291427 Z"
     fill="#6da5e7"
     id="path4"
     style="stroke-width:1.22514" />
</svg>
